<svg id="Layer_1" height="512" width="512" xmlns="http://www.w3.org/2000/svg" data-name="Layer 1"><path d="M58.841 288.965v181.421a8.113 8.113 0 008.093 8.114h50.114a8.114 8.114 0 008.092-8.109v-8.08h261.71v8.081a8.114 8.114 0 008.092 8.108h50.114a8.113 8.113 0 008.093-8.114V288.965c28.818-4.384 50.125-30.444 48.779-60.073-1.342-29.571-25.338-53.824-54.628-55.215a57.315 57.315 0 00-25.074 4.41V144.6c0-61.261-47.383-111.1-105.625-111.1H195.389c-58.242 0-105.625 49.839-105.625 111.1v33.489a57.331 57.331 0 00-25.074-4.412c-29.29 1.391-53.29 25.644-54.628 55.215-1.346 29.627 19.963 55.687 48.779 60.073zM386.8 374.194H125.2l.047-71.965h261.5zm-261.647 76.117l.042-64.117h261.61l.042 64.117zM446.74 185.664c23.166 1.1 42.146 20.327 43.211 43.772 1.088 23.964-16.439 44.98-39.9 47.844a10.189 10.189 0 00-8.891 10.153V466.5h-42.3l-.15-230.384-.02-.479c-.061-.748-.047-1.771-.034-2.761.006-.447.011-.886.011-1.306a46.034 46.034 0 0148.076-45.906zM101.764 144.6c0-54.644 42-99.1 93.625-99.1h121.222c51.625 0 93.625 44.456 93.625 99.1v40.361a59.61 59.61 0 00-5.573 4.679 57.446 57.446 0 00-18 41.93c0 .369 0 .757-.01 1.151-.015 1.127-.031 2.394.053 3.622l.035 53.886H125.258l.035-53.886c.084-1.228.068-2.495.053-3.622-.005-.394-.01-.782-.01-1.151a57.446 57.446 0 00-18-41.93 59.764 59.764 0 00-5.573-4.679zm-79.715 84.836c1.065-23.445 20.045-42.672 43.211-43.772a46.034 46.034 0 0148.076 45.906c0 .42 0 .859.011 1.306.013.99.027 2.013-.034 2.761l-.02.239-.15 230.624h-42.3V287.433a10.187 10.187 0 00-8.89-10.152c-23.465-2.865-40.992-23.881-39.904-47.845z"/><path d="M203.365 168.757a21.145 21.145 0 10-20.986-21.144 21.09 21.09 0 0020.986 21.144zm0-30.288a9.145 9.145 0 11-8.986 9.144 9.077 9.077 0 018.986-9.144zm105.829 30.288a21.145 21.145 0 10-20.986-21.144 21.089 21.089 0 0020.986 21.144zm0-30.288a9.145 9.145 0 11-8.986 9.144 9.076 9.076 0 018.986-9.144z"/></svg>