<svg version="1.1" id="Capa_1" xmlns="http://www.w3.org/2000/svg" x="0" y="0" viewBox="0 0 44 44" xml:space="preserve"><circle cx="13" cy="15" r="3"/><path d="M13 22c3.86 0 7-3.141 7-7s-3.14-7-7-7-7 3.141-7 7 3.14 7 7 7zm0-12c2.757 0 5 2.243 5 5s-2.243 5-5 5-5-2.243-5-5 2.243-5 5-5z"/><circle cx="31" cy="15" r="3"/><path d="M31 22c3.86 0 7-3.141 7-7s-3.14-7-7-7-7 3.141-7 7 3.14 7 7 7zm0-12c2.757 0 5 2.243 5 5s-2.243 5-5 5-5-2.243-5-5 2.243-5 5-5z"/><path d="M22 0C9.869 0 0 9.869 0 22s9.869 22 22 22 22-9.869 22-22S34.131 0 22 0zm0 42C10.972 42 2 33.028 2 22S10.972 2 22 2s20 8.972 20 20-8.972 20-20 20z"/><path d="M35.53 28.704h-2.112l.018-.004c-2.485-4.118-6.003-5.422-6.205-5.492-1.828-.544-3.718-.008-5.248 1.514-1.605-1.521-3.496-2.056-5.386-1.493-.144.054-3.553 1.358-6.016 5.476H8.47c-.799 0-1.513.477-1.818 1.215a1.963 1.963 0 00.427 2.144l1.208 1.209a8.253 8.253 0 005.873 2.433 8.335 8.335 0 006.319-2.92c.783-.908 1.231-1.083 1.358-1.086.059.006.16.004.22 0 .091.014.572.174 1.357 1.086a8.343 8.343 0 006.32 2.92h.107a8.252 8.252 0 005.873-2.433l1.208-1.209a1.964 1.964 0 00.427-2.144 1.963 1.963 0 00-1.819-1.216zm-1.231 3.153a6.267 6.267 0 01-4.458 1.847h-.107a6.34 6.34 0 01-4.804-2.225c-1.03-1.196-1.971-1.782-2.867-1.782-.039 0-.077.002-.116.004-.938-.058-1.908.53-2.984 1.778a6.34 6.34 0 01-4.803 2.225 6.261 6.261 0 01-4.458-1.847L8.47 30.704h2.112c.684 0 1.333-.372 1.693-.971 2.093-3.468 4.966-4.609 4.957-4.609 1.427-.425 2.624.336 3.376 1.049.751.712 1.926.71 2.675 0 .753-.712 1.953-1.475 3.324-1.066.03.011 2.995 1.11 5.118 4.629a1.998 1.998 0 001.693.969l2.089-.056-1.208 1.208z"/></svg>