<svg version="1.1" id="Layer_1" xmlns="http://www.w3.org/2000/svg" x="0" y="0" viewBox="0 0 512 512" xml:space="preserve"><path d="M362.672 42.66h-53.328c0 29.414-23.938 53.336-53.344 53.336s-53.328-23.922-53.328-53.336h-53.336L0 127.996l42.672 117.336 64-21.336V469.34h298.672V223.996l64 21.336L512 127.996 362.672 42.66zm93.703 175.867l-44.297-14.766L384 194.395v253.602H128V194.395l-28.078 9.367-44.297 14.766-29.43-80.93L155 63.996h29.43c9.18 30.844 37.75 53.336 71.57 53.336 33.828 0 62.391-22.492 71.562-53.336H357l128.812 73.602-29.437 80.929z"/></svg>