<svg xmlns="http://www.w3.org/2000/svg" version="1.1" id="Capa_1" x="0" y="0" viewBox="0 0 512.001 512.001" xml:space="preserve" width="512" height="512"><path d="M507.519 86.695A14.999 14.999 0 00497 61.001h-46v-46a14.998 14.998 0 00-25.693-10.519l-60 61c-.033.034-.061.072-.094.106-37.353-22.693-79.844-34.587-124.212-34.587-132.888 0-241 107.664-241 240 0 132.678 108.341 241 241 241 132.337 0 240-108.112 240-241 0-44.368-11.894-86.859-34.588-124.211.034-.033.072-.061.106-.095l61-60zM376.001 271.001c0 74.439-60.561 135-135 135s-135-60.561-135-135 60.561-135 135-135c31.827 0 61.112 11.078 84.216 29.571l-32.096 32.096c-14.717-10.49-32.71-16.667-52.12-16.667-49.626 0-90 40.374-90 90s40.374 90 90 90 90-40.374 90-90c0-19.41-6.177-37.403-16.667-52.12l32.096-32.096c18.493 23.104 29.571 52.389 29.571 84.216zm-145.606 10.606c5.857 5.858 15.356 5.858 21.213 0l41.06-41.06a59.619 59.619 0 018.333 30.454c0 33.084-26.916 60-60 60s-60-26.916-60-60 26.916-60 60-60a59.621 59.621 0 0130.454 8.333l-41.06 41.06c-5.858 5.858-5.858 15.355 0 21.213zm220.606-10.606c0 116.346-94.206 211-210 211-116.346 0-211-94.654-211-211 0-115.794 94.654-210 211-210 43.386 0 84.713 12.996 120 37.646v31.141l-14.473 14.473c-28.625-23.874-65.426-38.26-105.527-38.26-90.981 0-165 74.019-165 165s74.019 165 165 165 165-74.019 165-165c0-40.102-14.386-76.902-38.26-105.527l14.473-14.473h31.141c24.649 35.288 37.646 76.614 37.646 120zm-21.14-150h-38.86v-38.86l30-30.5V76c0 8.284 6.716 15 15 15h24.36v.001l-30.5 30z" data-original="#000000" class="active-path" data-old_color="#000000" fill="#FA7268"/></svg>